<?xml version="1.0" encoding="UTF-8"?>
<svg id="Layer_1" xmlns="http://www.w3.org/2000/svg" version="1.1" viewBox="0 0 650.6 800.2">
  <!-- Generator: Adobe Illustrator 29.6.1, SVG Export Plug-In . SVG Version: 2.1.1 Build 9)  -->
  <defs>
    <style>
      .st0 {
        fill: #fff;
      }
    </style>
  </defs>
  <path d="M525.4,0c3.6,1.1,7.5.9,11.2,1.5,59.1,8.9,105.9,57,113,116.3l1,10.7v496l-174.1,173.9-1.2.7c-117.5-.3-235.2.6-352.7-.5-63.7-5.5-115.7-57.1-121.7-120.6V120.7C7.8,55.7,59.4,5.6,124.5.4l.8-.4h400.2ZM601.2,604.4V126.9c-3.3-41.1-36.9-74.4-78-77.5H127.4c-39.9,3.2-72.9,34.9-77.4,74.7-.9,183.6-.9,367.5,0,551.1,4.5,39.7,37.4,71,77,74.6h328.9s0-79.4,0-79.4c2.2-35.2,30.6-63.9,66-66h79.4Z"/>
  <path class="st0" d="M125.2,0l-.8.4C59.4,5.6,7.8,55.7,1,120.7v557.4c6,63.6,58,115.1,121.6,120.6,117.5,1.1,235.1.2,352.7.5l1.2-.7,174.1-173.9v175.6H0V0h125.2Z"/>
  <path class="st0" d="M525.4,0h125.2v128.6l-1-10.7c-7.1-59.3-53.9-107.4-113-116.3-3.7-.6-7.6-.4-11.2-1.5Z"/>
  <path class="st0" d="M601.2,604.4h-79.4c-35.3,2-63.7,30.8-66,65.9v79.4s-328.9,0-328.9,0c-39.6-3.7-72.4-34.9-77-74.6-.9-183.6-.9-367.5,0-551.1,4.5-39.7,37.5-71.5,77.4-74.7h395.9c41,3.1,74.7,36.4,78,77.5v477.6ZM315.7,332c-9.2-35.3-27.1-65.4-65.6-72.3-70.7-12.6-110,33.8-115.2,99.9s10.4,137.1,82.3,144.1c42.2,4.1,72.7-8.2,90.4-47.8,4.6-10.2,8-21.9,9.6-33l-1-.9-49.3-18.6c-3.5,19.9-10.4,44.3-34.3,46.1-34.5,2.6-39.5-32.3-40.6-58.8-1.2-29.4,1.4-81.5,43-78s20.6,9.9,25.1,19,3,9.7,5.1,14l50.6-13.9ZM388.7,261.9h-60.5l71.2,237.9,1.4.5,61.2-.2,70-238.2h-58.5l-41.7,171.7-43.2-171.7Z"/>
  <path d="M315.7,332l-50.6,13.9c-2.1-4.4-2.9-9.5-5.1-14-4.5-9.1-14.6-18.1-25.1-19-41.5-3.5-44.1,48.6-43,78,1,26.5,6.1,61.3,40.6,58.8,23.9-1.8,30.8-26.2,34.3-46.1l49.3,18.6,1,.9c-1.6,11.1-5,22.7-9.6,33-17.7,39.6-48.1,51.9-90.4,47.8-71.9-7-87.1-84.3-82.3-144.1s44.5-112.5,115.2-99.9c38.5,6.9,56.4,37,65.6,72.3Z"/>
  <polygon points="388.7 261.9 431.8 433.7 473.6 261.9 532.1 261.9 462.1 500.1 400.9 500.4 399.4 499.9 328.2 261.9 388.7 261.9"/>
</svg>